<svg width="39" height="61" viewBox="0 0 39 61" fill="none" xmlns="http://www.w3.org/2000/svg">
<path fill-rule="evenodd" clip-rule="evenodd" d="M17.0296 43.1661C13.4026 49.4491 18.7129 55.0782 22.6547 59.2583C23.0198 59.6473 23.3756 60.0233 23.7086 60.3866L22.381 59.9506L22.276 60.438L20.8572 59.9807L20.7524 60.4636L19.3289 60.0021L19.2239 60.4891L17.8052 60.0277L17.7002 60.5106L16.286 60.0533L16.1764 60.5361L14.7575 60.0788L14.6479 60.5619L13.2337 60.1003L13.1287 60.5831L12.2208 60.2756C11.9565 59.9807 10.8293 58.6514 9.47437 56.0526C9.406 55.5141 9.36938 54.9842 9.36938 54.467C9.36938 54.2875 9.37404 54.1037 9.38314 53.9242C9.38314 53.8643 9.38759 53.8001 9.39689 53.7404C9.40155 53.5651 9.41955 53.3898 9.43796 53.2147C9.44706 53.1292 9.45616 53.0438 9.46992 52.9625C9.48347 52.8643 9.49723 52.7659 9.51098 52.6717C9.53384 52.5222 9.56115 52.377 9.59311 52.2317C9.61577 52.1119 9.64328 51.9923 9.67079 51.8726L9.6799 51.8341C9.70255 51.7444 9.72521 51.6546 9.75272 51.5606C9.78468 51.4452 9.81644 51.3298 9.85306 51.2144C9.88057 51.1246 9.90787 51.0347 9.93984 50.9451C9.9718 50.8511 10.0036 50.7486 10.0402 50.6546L10.0537 50.6203C10.1132 50.4622 10.1771 50.3081 10.2408 50.1544C10.3046 50.0091 10.3687 49.8637 10.4415 49.7184C10.5054 49.5859 10.5694 49.4534 10.6377 49.3253L10.6422 49.321C10.7154 49.1885 10.7884 49.056 10.8659 48.9235C10.907 48.8508 10.948 48.778 10.9938 48.7054C11.0302 48.6499 11.0666 48.59 11.1032 48.5345C11.1853 48.4062 11.2719 48.2781 11.3585 48.15C11.4453 48.0217 11.5365 47.8934 11.6324 47.7694C11.7283 47.6455 11.824 47.5174 11.9243 47.3934C12.0155 47.2822 12.107 47.1668 12.2073 47.0555C12.2894 46.9574 12.3713 46.8634 12.4581 46.7694C12.5449 46.6754 12.6315 46.5812 12.7229 46.4872C12.9005 46.2992 13.0876 46.1112 13.2839 45.9272C13.3798 45.8375 13.4801 45.7435 13.5804 45.6537C13.6808 45.5639 13.7811 45.4742 13.8863 45.3844C13.9911 45.2946 14.0961 45.2049 14.2055 45.1196C14.3151 45.0298 14.4246 44.94 14.534 44.8545C14.6435 44.7649 14.7575 44.6792 14.8761 44.5937C15.0405 44.4698 15.2093 44.3459 15.3826 44.2263C15.5513 44.1065 15.7293 43.9826 15.9074 43.8672C16.2676 43.6278 16.6419 43.3926 17.0296 43.1661ZM29.562 29.2411C32.3405 30.4036 32.0668 34.0966 32.0439 34.3316C31.4188 37.6312 28.9645 38.0927 28.8504 38.1143C27.2535 38.4175 23.3847 39.2938 19.4201 41.1147L19.4796 41.0377L18.0012 41.8028C17.8097 41.901 17.6181 42.0037 17.431 42.1062C17.2439 42.2046 17.0616 42.3071 16.8836 42.414C16.7011 42.5165 16.5231 42.619 16.3498 42.7303C15.9984 42.9397 15.6608 43.1576 15.3324 43.3799C15.2137 43.4612 15.0952 43.5423 14.9811 43.6234C14.8716 43.7004 14.7622 43.7775 14.6528 43.8586C14.6435 43.863 14.6343 43.8715 14.6252 43.88C14.5158 43.957 14.4106 44.0383 14.3058 44.1192C14.1964 44.2005 14.087 44.286 13.982 44.3714L13.7663 44.5452L13.5578 44.722C13.4162 44.8373 13.2794 44.957 13.1469 45.0768C13.033 45.1793 12.9189 45.2819 12.8093 45.3844C12.7229 45.4657 12.6406 45.5426 12.5631 45.6239C12.3807 45.8034 12.1982 45.9914 12.0246 46.1794C11.9061 46.3035 11.7964 46.4316 11.6826 46.5598C11.4042 46.8761 11.1487 47.2011 10.9114 47.5259C10.7884 47.6925 10.6743 47.8592 10.5694 48.026C10.4599 48.1841 10.3596 48.3421 10.2684 48.5002C10.2637 48.5087 10.2544 48.5218 10.2499 48.5303C10.2499 48.5345 10.2453 48.5388 10.2408 48.543C10.1632 48.6755 10.0857 48.8123 10.0173 48.9448L10.0129 48.9491C9.95339 49.056 9.89877 49.1629 9.84395 49.2696C9.8395 49.2825 9.83485 49.291 9.82554 49.3039C9.74362 49.462 9.66594 49.6287 9.59757 49.7911C9.53385 49.9236 9.47882 50.0604 9.4242 50.1973C9.36938 50.3339 9.31921 50.4707 9.26904 50.6117C9.23708 50.693 9.20978 50.7741 9.18247 50.8596C9.14586 50.9665 9.10944 51.0734 9.07748 51.1803C9.02731 51.3596 8.97714 51.5394 8.93608 51.723C8.93143 51.7401 8.92698 51.7571 8.92232 51.7744C8.89946 51.8599 8.87681 51.9495 8.8586 52.0393C8.8586 52.0564 8.85415 52.0776 8.8493 52.0992C8.83109 52.1803 8.81289 52.2573 8.79913 52.3384C8.77648 52.4496 8.75827 52.565 8.73986 52.6805C8.72166 52.8042 8.70324 52.9283 8.68969 53.0523C8.67149 53.1933 8.65773 53.3343 8.64398 53.4753C8.63953 53.5181 8.63508 53.5609 8.63508 53.6036C8.62597 53.6976 8.62132 53.7916 8.61687 53.8856C8.61201 53.9542 8.61201 54.0224 8.61201 54.0952L8.60756 54.1592C8.60291 54.1977 8.60291 54.2405 8.60291 54.279C8.42975 53.9157 8.23818 53.5139 8.03266 53.0735C5.92056 48.496 5.44599 44.5937 6.62756 41.4736C7.2937 39.7041 8.1514 38.3408 9.38314 37.0671L9.50188 36.9516V36.9475C12.2666 34.2547 16.4821 32.045 21.838 30.4464C22.0618 30.3824 22.2807 30.3225 22.4997 30.2584C22.6593 30.2156 22.8189 30.1728 22.9832 30.1258C23.9595 29.8694 24.9861 29.6173 26.0262 29.3779C26.2042 29.3395 26.3776 29.301 26.551 29.2625L26.9161 29.2197L26.998 29.2112C27.2171 29.1854 27.3858 29.16 27.5456 29.1384C27.7463 29.1086 27.9379 29.0829 28.2025 29.0529C28.9416 28.972 29.5438 29.2369 29.562 29.2411ZM7.03376 26.0313C11.1989 28.2623 16.6144 29.4805 22.3219 29.4805H22.6001C22.4951 29.5102 22.3856 29.5404 22.2807 29.5745C22.2167 29.5915 22.153 29.6088 22.0891 29.63C21.674 29.7456 21.2496 29.865 20.83 29.9933L20.7297 30.0232V30.0276C18.3207 30.7627 16.2721 31.5663 14.6434 32.4168C14.5751 32.4553 14.5065 32.4894 14.4428 32.5278L14.3242 32.5879C13.1014 33.2588 11.9654 33.9725 10.9345 34.7207C10.7791 34.8359 10.6195 34.9557 10.4781 35.0755C9.99911 35.4515 9.52009 35.8744 9.04552 36.3575C8.39314 36.0113 7.77272 35.6353 7.64042 35.5284L7.60401 35.4858C7.5765 35.4556 7.54454 35.4215 7.51723 35.3872C7.45796 35.319 7.39404 35.2462 7.32566 35.1695C7.25729 35.0923 7.18871 35.0112 7.11569 34.9214L7.03869 34.8258L6.96519 34.7334C6.91502 34.6735 6.8693 34.6095 6.81933 34.5454C5.82468 33.2544 4.62025 31.2543 4.79341 29.3222C4.79341 29.3181 4.79806 29.3181 4.79806 29.3137C4.80737 29.1727 4.83002 29.0359 4.85753 28.8949C4.87109 28.8265 4.88464 28.7624 4.90305 28.6942C4.95787 28.506 5.02159 28.3307 5.09017 28.1641C5.09017 28.1598 5.09482 28.151 5.09927 28.1469C5.17675 27.9718 5.26353 27.8093 5.35476 27.6598C5.45044 27.5057 5.55543 27.3647 5.65577 27.2279C5.71059 27.1597 5.76986 27.0955 5.82468 27.0314C6.1532 26.6681 6.55919 26.3347 7.03376 26.0313ZM35.6754 0.553223L35.5387 1.59592L36.0403 1.70717L35.8716 2.97671L36.3735 3.09213L36.2048 4.37001L36.7065 4.48107L36.5788 5.43413V5.4599L36.5835 5.84025H36.912V6.88314L36.88 7.13955L36.912 7.14808V7.22521H37.2632L37.3773 7.2508L37.213 8.52868L37.7102 8.63974L37.5458 9.91345L38.0478 10.0247L37.9293 10.9093C37.8654 11.0248 37.7879 11.1659 37.7011 11.3325C36.7657 13.1276 34.2703 17.8976 24.4296 20.5262C23.4669 20.7828 21.4139 21.2486 19.0368 21.787C15.752 22.535 12.0293 23.3814 10.2182 23.8984C9.24619 24.1764 7.55829 24.8986 7.46261 24.9456C7.25729 25.0481 7.06087 25.155 6.8784 25.2663L6.80558 25.3047C6.47241 25.4886 5.65577 25.9885 4.98983 26.869C4.97142 26.8862 4.95787 26.9033 4.94877 26.9245C4.88465 27.0015 4.83002 27.0828 4.77986 27.1639C4.49706 27.5785 4.29619 28.0273 4.16854 28.5016C4.14568 28.5871 4.12727 28.6726 4.10927 28.7582C4.09551 28.8094 4.08196 28.8649 4.07286 28.9163C3.79451 30.4167 4.23246 32.0664 5.38207 33.84C2.58098 31.2843 0.450274 27.3092 0.997869 23.6164C1.91929 17.4574 5.55988 15.4656 8.89947 14.0852C11.0029 13.2131 14.461 12.4611 17.5131 11.7984C19.4931 11.3712 21.359 10.9651 22.7186 10.5633C27.9106 9.02464 29.5758 7.41321 30.5702 6.45579C30.6524 6.37449 30.7347 6.29755 30.8075 6.22497C33.3988 3.80148 35.0459 1.4934 35.6754 0.553223Z" fill="#4F46E5"/>
</svg>
