<svg 
  xmlns="http://www.w3.org/2000/svg"
  class="h-6 w-6"
  fill="none"
  stroke="currentColor"
  width="170" 
  height="170" 
  viewBox="0 0 170 170" fill="none"
  >
<path fill-rule="evenodd" clip-rule="evenodd" d="M6.388 0.689014C5.227 1.16301 3.314 2.77502 2.138 4.27002L0 6.98801V84.306C0 142.121 0.301 162.285 1.195 164.246C3.763 169.883 1.20399 169.718 86.027 169.718H164.154L167.077 166.795L170 163.872V85.311V6.75001L167.082 3.48401L164.165 0.218014L86.332 0.0220146C43.525 -0.0859855 7.55 0.214014 6.388 0.689014ZM150 85.218V150.718H85H20V85.218V19.718H85H150V85.218ZM50.688 54.364C50.309 54.742 50 68.49 50 84.916C50 108.267 50.279 114.888 51.281 115.272C51.985 115.542 56.148 114.204 60.531 112.299L68.5 108.834L68.756 85.026L69.013 61.218L60.869 57.718C56.389 55.793 52.421 54.096 52.05 53.947C51.679 53.798 51.066 53.986 50.688 54.364ZM109.5 57.573C105.1 59.537 101.169 61.611 100.765 62.181C99.416 64.085 99.863 106.168 101.25 107.86C102.967 109.953 117.603 116.082 118.928 115.263C120.58 114.241 120.407 55.083 118.75 54.467C118.063 54.211 113.9 55.609 109.5 57.573Z" 
fill="#4F46E5"/>
</svg>
