<svg width="913" height="634" viewBox="0 0 913 634" fill="none" xmlns="http://www.w3.org/2000/svg">
<path fill-rule="evenodd" clip-rule="evenodd" d="M884.203 3.278C881.746 7.647 879.065 7.892 868.662 4.701C842.35 -3.371 815.355 6.17999 806.339 26.75C803.96 32.179 803.97 47.923 806.357 54.25C812.069 69.389 823.431 77.916 851 87.754C877.724 97.291 885.33 104.731 885.356 121.363C885.383 137.993 875.249 148.443 856.935 150.671C843.373 152.32 827.417 146.614 818.127 136.791C813.523 131.923 810.681 126.978 806.141 115.934C805.208 113.666 804.45 113.18 802.242 113.434L799.5 113.75L799.229 134.623C798.955 155.746 799.319 158.25 802.656 158.25C803.432 158.25 804.999 156.672 806.136 154.743C809.197 149.556 811.77 149.381 821.68 153.685C833.762 158.932 843.693 161.25 854.095 161.25C872.629 161.25 887.673 155.691 897.31 145.282C905.599 136.329 907.403 130.9 907.457 114.75C907.497 102.752 907.298 101.326 904.886 96.25C901.48 89.086 897.106 83.746 890.701 78.933C883.44 73.477 877.781 70.796 863.723 66.148C834.491 56.484 824.44 47.072 826.328 31.13C827.489 21.323 833.341 15.32 844.402 12.591C852.501 10.592 860.82 11.539 868.748 15.361C874.85 18.302 882.686 26.16 886.913 33.576C888.74 36.781 890.887 39.653 891.684 39.959C895.161 41.293 895.352 38.623 893.002 21.543C891.731 12.307 890.322 3.73801 889.87 2.5C888.723 -0.645996 886.218 -0.302002 884.203 3.278ZM660.5 2.299C626.446 5.10699 598.527 23.893 587.754 51.25C583.787 61.322 582.597 68.648 582.637 82.75C582.748 122.352 602.386 148.208 639.696 157.879C651.912 161.045 672.101 162.149 683.727 160.286C699.301 157.791 715.817 151.126 727.25 142.722L732 139.231L732.056 122.99C732.091 113.125 732.581 105.413 733.306 103.344C734.944 98.67 738.771 96.131 746.202 94.787C750.83 93.95 752.581 93.188 752.829 91.902C753.701 87.371 752.771 87.25 716.949 87.25C687.152 87.25 682.951 87.442 681.527 88.866C680.114 90.279 680.089 90.752 681.324 92.616C682.4 94.24 684.193 94.914 688.828 95.435C696.577 96.306 703.318 99.28 705.666 102.862C707.233 105.255 707.5 107.785 707.5 120.25C707.5 137.025 707.011 138.384 699.186 143.349C692.576 147.543 682.917 150.35 672.964 150.971C642.551 152.867 620.208 135.914 611.889 104.628C609.031 93.883 608.77 74.049 611.337 62.75C613.683 52.425 620.608 38.178 626.546 31.462C638.699 17.717 657.267 10.276 675.814 11.718C686.712 12.566 697.647 15.427 705.314 19.436C713.244 23.583 724.429 34.825 729.017 43.262C732.736 50.099 735.415 51.77 737.684 48.668C739.578 46.078 739.559 12.397 737.663 9.804C735.826 7.291 733.927 8.19899 731.529 12.736C728.01 19.394 727.44 19.388 714.293 12.572C707.807 9.21001 700.008 5.752 696.962 4.888C687.814 2.29401 673.177 1.254 660.5 2.299ZM768.741 2.681C766.673 3.418 764.314 4.575 763.498 5.252C761.429 6.96899 759.874 13.37 760.62 17.1C761.986 23.929 770.506 28.218 776.206 24.946C778.958 23.367 779 23.382 779 25.928C779 31.101 774.866 35.609 764.432 41.814C761.985 43.269 763.271 46.25 766.346 46.25C773.255 46.25 782.474 39.127 786.093 30.992C789.272 23.846 789.445 12.663 786.438 8.63499C781.865 2.50999 775.361 0.320999 768.741 2.681ZM1.86501 4.05701C-0.117996 5.44601 -0.515991 7.88699 0.880005 10.09C1.347 10.828 4.868 12.029 8.70399 12.76C27.041 16.254 35.257 25.687 38.008 46.404C38.783 52.238 39.003 88.457 38.739 166.75C38.34 285.595 38.466 282.382 33.753 293.39C31.628 298.353 25.463 304.973 20.707 307.399C18.546 308.502 13.58 310.071 9.67101 310.886C5.761 311.701 1.98601 312.846 1.28101 313.431C-0.356995 314.791 -0.376007 318.721 1.25 319.949C2.00999 320.524 27.384 320.817 66 320.697L129.5 320.501L130.432 317.906C131.8 314.099 129.081 311.583 122.67 310.72C114.686 309.647 102.899 305.618 97.736 302.198C91.86 298.307 87.346 292.23 85.423 285.624C82.798 276.609 82.196 263.73 82.349 219.911L82.5 177.073L84.768 175.236C88.957 171.845 92.25 173.909 107.5 189.487C127.901 210.327 177.211 266.979 211.51 308.985L221.5 321.22L264.215 321.235C305.432 321.249 306.966 321.182 307.965 319.315C308.64 318.054 308.67 316.513 308.051 314.884C307.282 312.862 306.191 312.262 302.301 311.723C282.327 308.96 266.99 300.202 248.209 280.836C231.138 263.234 183.339 208.537 139.793 156.774L127.194 141.799L132.984 135.274C143.291 123.659 209.148 59.084 222.544 47.457C245.312 27.697 259.803 18.529 274.864 14.355C278.774 13.271 282.429 12.103 282.986 11.759C284.528 10.805 284.196 5.65701 282.501 4.25101C281.348 3.29401 269.155 3.017 229.539 3.049C201.234 3.07199 177.181 3.375 176.089 3.722C173.576 4.519 172.569 7.57599 173.962 10.178C175.01 12.138 176.8 12.789 188 15.287C198.497 17.629 202 20.599 202 27.16C202 39.915 186.986 58.181 130.802 113.781C92.939 151.25 85.873 157.523 83.829 155.479C82.477 154.127 82.655 55.047 84.031 42.979C85.182 32.885 88.776 26.136 95.447 21.538C100.467 18.078 110.53 14.528 118 13.581C124.315 12.781 127 10.875 127 7.196C127 5.541 126.417 3.964 125.704 3.69C124.992 3.41701 97.256 3.09299 64.069 2.97099C15.738 2.79399 3.35901 3.01001 1.86501 4.05701ZM306.011 3.737C304.026 6.129 305.615 8.16501 310.016 8.869C315.235 9.703 319.832 12.804 322.446 17.253C324.456 20.676 324.5 22.025 324.5 80.75C324.5 128.152 324.22 141.54 323.169 144.511C321.506 149.21 316.712 152.953 311.235 153.828C306.631 154.565 304.455 156.388 305.362 158.752C305.873 160.084 309.938 160.245 337.224 160.014L368.5 159.75L368.815 157.535C369.061 155.802 368.518 155.193 366.315 154.734C358.329 153.071 354.526 150.785 352.25 146.28L350 141.826L350.006 82.288C350.009 44.763 350.39 21.387 351.035 19.064C352.296 14.525 356.836 10.55 361.779 9.658C363.826 9.289 366.288 8.57999 367.25 8.08299C369.431 6.95699 369.537 3.67 367.418 2.85699C366.548 2.52299 352.653 2.25 336.541 2.25C311.831 2.25 307.052 2.483 306.011 3.737ZM393.152 3.13499C390.19 5.01199 392.425 7.61801 398.54 9.41901C402.42 10.562 405.632 12.3 407.537 14.288L410.5 17.379L410.785 54.931C411.142 101.928 409.851 140.304 407.744 145.332C405.821 149.921 401.744 153.107 396.782 153.901C392.323 154.614 389.819 156.614 390.656 158.795C391.145 160.069 395.043 160.244 417.863 160.016C444.433 159.751 444.501 159.744 444.812 157.555C445.074 155.718 444.423 155.181 440.812 154.259C430.9 151.725 428.096 149.528 425.446 142.222C423.43 136.66 421.803 92.369 422.221 54.395L422.5 29.04L429.5 36.979C433.35 41.346 459.81 70.868 488.299 102.584L540.099 160.25H544.049H548L548.068 115C548.105 90.113 548.477 58.95 548.893 45.75C549.554 24.778 549.907 21.173 551.69 17.178C553.767 12.523 558.35 9.25 562.79 9.25C563.884 9.25 565.841 8.35001 567.139 7.25101C569.466 5.28001 569.472 5.23 567.536 3.73399C565.877 2.452 561.619 2.258 540.036 2.48399L514.5 2.75L514.182 4.99001C513.84 7.395 515.027 8.119 522.657 10.162C527.601 11.485 532.414 16.514 533.962 21.973C535.562 27.616 537.126 66.638 536.793 92.632L536.5 115.514L508 83.567C492.325 65.996 469.6 40.512 457.5 26.936L435.5 2.25301L415 2.267C403.725 2.274 393.893 2.66499 393.152 3.13499ZM391.561 185.838C358.779 193.16 329.711 223.239 319.819 260.075C317.039 270.426 316.746 289.316 319.241 297.374C322.827 308.954 331.805 318.265 342.897 321.909C346.966 323.246 351.375 323.735 359 323.694C368.789 323.641 370.312 323.345 381.5 319.318C388.1 316.943 395.287 314.943 397.47 314.874L401.441 314.75L402.492 320.25C403.426 325.138 403.816 325.75 405.999 325.75C408.303 325.75 408.905 324.428 415.756 304.314C422.175 285.466 422.879 282.701 421.588 281.41C420.297 280.119 419.811 280.144 417.56 281.619C416.152 282.541 415 283.727 415 284.254C415 284.781 412.034 288.356 408.41 292.199C397.296 303.98 382.244 311.917 366.48 314.309C352.702 316.399 344.345 312.451 339.287 301.463C337.944 298.545 337.587 294.965 337.62 284.75C337.657 273.531 338.037 270.517 340.393 262.75C346.519 242.559 357.026 224.94 371.404 210.75C378.288 203.957 382.46 200.769 388.42 197.75C395.91 193.956 396.783 193.75 405.408 193.75C413.579 193.75 415.032 194.045 419.754 196.661C428.952 201.758 432.674 208.787 433.824 223.239C434.395 230.408 434.788 231.782 436.356 232.082C437.377 232.278 438.659 231.991 439.205 231.445C440.639 230.011 451.802 192.988 451.25 191.5C450.339 189.046 447.227 190.314 444.5 194.25C442.857 196.622 440.927 198.25 439.761 198.25C438.679 198.25 435.568 196.249 432.849 193.804C430.129 191.358 425.338 188.38 422.202 187.185C414.68 184.32 401.041 183.72 391.561 185.838ZM578.06 185.363C567.818 186.272 564.577 187.83 566.958 190.7C567.707 191.602 569.832 192.25 572.041 192.25C576.865 192.25 579 193.074 579 194.934C579 195.743 576.117 203.008 572.593 211.077C536.324 294.143 527.584 315.456 528.422 318.794C529.254 322.112 532.491 323.567 537.723 322.978C550.574 321.529 573.177 303.568 566.974 299.734C566.409 299.385 562.922 301.342 559.224 304.083C552.082 309.377 547.353 311.937 546.428 311.011C546.117 310.701 557.858 282.703 572.518 248.793C587.177 214.884 598.922 186.49 598.617 185.695C597.992 184.065 593.5 183.992 578.06 185.363ZM630.5 185.379C619.71 186.409 619 186.64 619 189.112C619 191.254 620.831 192.243 624.832 192.264C628.569 192.283 632 193.312 632 194.413C632 194.925 623.402 215.235 612.894 239.547C579.075 317.79 578.963 318.096 582.873 321.635C587.881 326.167 603.392 320.492 614.564 310.041C620.668 304.331 622.31 301.178 619.941 299.714C619.359 299.354 617.096 300.34 614.912 301.905C603.633 309.987 601.671 311.25 600.391 311.25C599.626 311.25 599 310.81 599 310.271C599 309.733 610.7 282.256 625 249.212C639.3 216.167 651 188.033 651 186.69C651 184.37 650.716 184.257 645.25 184.385C642.087 184.459 635.45 184.907 630.5 185.379ZM491.618 220.362C485.454 221.809 476.072 227.292 469.755 233.139C455.125 246.68 445 270.545 445 291.49C445 313.577 456.353 325.201 474.969 322.175C501.095 317.928 525.12 283.418 525.101 250.166C525.094 237.866 522.775 231.141 516.568 225.419C510.252 219.598 502 217.925 491.618 220.362ZM808.47 223.266L802.736 226.282L796.448 223.766C777.779 216.297 755.769 225.98 745.338 246.25C742.92 250.949 742.51 252.915 742.521 259.75C742.532 266.126 742.996 268.62 744.806 272.035L747.076 276.32L743.57 277.785C741.642 278.591 739.527 279.25 738.87 279.25C736.353 279.25 728.943 284.459 727.506 287.239C724.318 293.404 726.647 301.823 732.625 305.74C735.614 307.699 735.046 308.522 729.5 310.267C723.252 312.232 714.437 316.927 710.492 320.391C705.677 324.619 704 328.165 704 334.123C704 338.203 704.591 339.87 707.294 343.422C717.274 356.532 747.869 361.257 769.756 353.068C777.894 350.023 785.382 342.357 786.836 335.581C789.327 323.964 783.306 316.731 762 305.747C742.476 295.683 737.669 290.569 743.109 285.655C744.987 283.958 746.874 283.75 760.359 283.75C774.925 283.75 775.736 283.641 781.722 280.876C791.978 276.139 800.703 265.328 804.031 253.233C804.709 250.767 805.22 244.953 805.166 240.312C805.11 235.546 805.541 231.303 806.156 230.562C807.604 228.818 812.228 228.9 816.654 230.75C821.66 232.842 824.625 232.623 826.443 230.027C832.544 221.318 820.667 216.85 808.47 223.266ZM694.805 224.277C679.743 229.461 664.674 241.98 653.175 258.863C643.116 273.631 637.483 293.624 639.984 305.673C641.098 311.038 645.966 318.091 650.074 320.29C657.235 324.122 670.85 323.028 681.62 317.755C690.122 313.593 702.334 301.6 701.809 297.929C701.245 293.988 698.179 294.869 691.756 300.816C684.25 307.764 677.257 311.227 670.7 311.24C660.47 311.261 656.464 305.947 657.211 293.347C657.481 288.792 658.465 283.948 659.668 281.25L661.675 276.75L673.013 274.452C692.975 270.405 705.856 264.971 714.749 256.847C721.287 250.874 724.076 245.671 724.68 238.322C725.239 231.522 723 226.792 717.938 224.077C713.295 221.587 702.347 221.682 694.805 224.277ZM865.438 225.106C847.322 232.256 830.262 248.746 820.515 268.529C803.835 302.383 812.973 326.542 840.829 322.231C844.498 321.663 850.301 319.837 853.724 318.174C863.877 313.241 876.139 300.66 874.629 296.725C873.61 294.071 870.919 295.162 864.66 300.766C856.184 308.355 850.127 311.25 842.727 311.25C837.599 311.25 836.482 310.886 834.004 308.408C829.471 303.875 828.408 298.275 830.304 288.908C832.613 277.493 833.093 277.003 844.002 274.912C877.921 268.41 897.126 254.84 897.392 237.187C897.488 230.797 895.645 227.224 890.696 224.206C885.683 221.15 874.448 221.55 865.438 225.106ZM506.288 228.335C515.42 232.496 513.819 253.07 502.502 277C491.388 300.499 475.613 316.199 465.632 313.694C460.968 312.523 458.628 308.779 458.182 301.774C456.969 282.722 471.339 250.336 487.744 235.148C495.28 228.171 501.174 226.005 506.288 228.335ZM789.975 229.225C792.818 232.068 793.407 235.599 792.113 242.043C789.709 254.011 780.991 268.397 773.115 273.392C768.188 276.517 761.713 277.223 758.635 274.972C751.677 269.884 757.303 248.362 768.828 235.977C776.349 227.895 785.669 224.919 789.975 229.225ZM708.227 232C710.842 234.978 711.2 238.052 709.579 243.625C707.724 250.006 702.329 256.036 695.277 259.61C687.095 263.756 666 269.535 666 267.631C666 264.665 679.629 245.826 686.666 239.067C694.852 231.202 704.694 227.977 708.227 232ZM881 232.25C883.563 234.813 883.623 241.287 881.134 246.75C877.24 255.3 867.883 261.185 851 265.703C837.292 269.371 837.389 269.409 841.698 262C849.117 249.245 862.29 234.764 869.208 231.759C873.953 229.697 878.643 229.893 881 232.25ZM752.963 318.28C758.348 321.046 764.384 324.893 766.377 326.828C769.463 329.825 770 331.001 770 334.763C770 343.868 761.27 349.25 746.5 349.25C736.783 349.25 729.711 346.985 724.632 342.248C720.859 338.728 720.5 337.961 720.5 333.415C720.5 329.341 721.062 327.742 723.589 324.619C726.496 321.027 738.915 313.299 741.835 313.266C742.57 313.257 747.577 315.513 752.963 318.28ZM202 383.317C166.021 386.889 140.088 418.12 142.302 455.213C143.885 481.73 156.546 502.891 177.035 513.261C188.02 518.82 196.288 520.677 210 520.664C231.284 520.643 244.879 515.359 258.603 501.772C267.839 492.63 272.62 484.13 276.055 470.75C278.748 460.263 278.945 443.584 276.493 433.75C268.033 399.821 238.328 379.711 202 383.317ZM672.76 383.281C657.424 385.106 644.746 391.385 633.347 402.802C619.971 416.198 614.044 430.993 614.015 451.053C613.996 464.188 616.043 473.409 621.496 484.75C633.179 509.049 658.335 523.032 686.5 520.884C711.743 518.959 732.018 506.251 741.851 486.192C748.046 473.555 749.465 467.061 749.484 451.25C749.497 439.867 749.133 436.574 747.159 430.25C743.507 418.548 739.28 411.535 730.465 402.555C723.917 395.884 720.848 393.61 713.961 390.326C700.423 383.871 687.033 381.582 672.76 383.281ZM9.362 384.75C8.31799 387.47 9.769 388.956 14.025 389.527C19.121 390.21 23.601 394.156 25.001 399.193C26.316 403.927 26.333 499.602 25.02 504.181C23.731 508.673 19.489 512.998 15.609 513.776C9.46899 515.007 8.875 515.36 9.192 517.586L9.5 519.75L67.229 520.008L124.958 520.266L125.465 518.008C127.496 508.961 132.046 481.573 131.802 479.862C131.61 478.523 130.773 477.75 129.514 477.75C128.015 477.75 126.479 479.876 123.243 486.43C113.504 506.158 100.339 512.412 71.622 510.952C58.553 510.288 53.626 509.029 50.377 505.523L48 502.958V451.151C48 413.682 48.324 398.632 49.172 396.772C50.683 393.455 55.485 390.516 60.777 389.67C65.996 388.835 67.696 387.089 65.463 384.856C64.068 383.461 60.319 383.25 36.897 383.25C13.855 383.25 9.854 383.468 9.362 384.75ZM290 384.75C288.172 386.953 290.012 388.619 295.956 390.142C299.109 390.95 301.75 392.388 303 393.977C304.943 396.447 304.999 398 304.956 448.635C304.91 503.317 304.745 505.559 300.419 510.339C299.445 511.416 296.26 512.991 293.342 513.839C287.546 515.524 286.681 516.254 287.611 518.678C288.157 520.103 290.871 520.256 311.364 520.018C333.649 519.76 334.5 519.677 334.5 517.774C334.5 516.442 333.523 515.51 331.5 514.914C323.247 512.482 319.888 510.252 318.041 505.982C316.383 502.147 316.146 497.057 315.519 451.75C315.068 419.247 315.167 402.1 315.801 402.75C316.338 403.3 338.935 429.85 366.017 461.75C413.441 517.611 415.394 519.761 418.965 520.05L422.674 520.349L423.335 483.55C423.699 463.31 423.998 436.542 423.999 424.065C423.999 410.427 424.425 400.257 425.067 398.565C426.791 394.014 430.051 391.291 435.762 389.631C440.306 388.31 441.069 387.747 440.808 385.912C440.502 383.768 440.313 383.75 417.5 383.75C394.687 383.75 394.498 383.768 394.192 385.912C393.928 387.766 394.712 388.313 399.692 389.745C407.044 391.861 410.561 395.143 411.879 401.119C412.441 403.666 413.168 423.3 413.495 444.75L414.09 483.75L411.295 480.52C409.758 478.743 390.5 456.15 368.5 430.312L328.5 383.335L309.872 383.293C294.498 383.257 291.028 383.512 290 384.75ZM453 384.237C450.665 385.725 453.033 388.563 457.36 389.462C462.499 390.53 465.527 392.762 467.664 397.059C469.373 400.495 469.5 404.274 469.5 451.75C469.5 500.75 469.422 502.907 467.5 506.75C465.517 510.715 462.149 513.012 455.5 514.932C453.471 515.518 452.5 516.438 452.5 517.774C452.5 519.709 453.331 519.75 493 519.75C539.516 519.75 542.12 519.395 560 510.611C567.654 506.851 570.964 504.468 577.034 498.347C590.114 485.156 595.391 471.462 595.374 450.75C595.367 442.496 594.803 436.565 593.567 431.75C586.641 404.761 564.775 388.038 531.5 384.282C519.999 382.984 455.024 382.947 453 384.237ZM761.362 384.75C760.322 387.46 761.796 389.04 766.032 389.755C768.425 390.16 771.546 391.659 773.352 393.272L776.5 396.083L776.689 410.916C776.793 419.075 776.568 443.605 776.189 465.429C775.528 503.481 775.415 505.223 773.419 507.929C771.191 510.95 766.257 513.817 761.685 514.748C759.479 515.197 758.938 515.8 759.185 517.535C759.5 519.748 759.518 519.75 782.5 519.75C805.482 519.75 805.5 519.748 805.815 517.535C806.06 515.808 805.51 515.183 803.315 514.696C793.537 512.524 789.734 509.408 788.126 502.25C786.603 495.476 785.784 401.634 787.26 403.11C787.895 403.745 810.503 430.249 837.499 462.008L886.584 519.75H890.542H894.5L895 459.75C895.45 405.771 895.67 399.439 897.199 396.648C899.275 392.859 903.038 390.28 907.565 389.546C911.884 388.845 913.736 386.842 912 384.75C910.965 383.503 907.169 383.25 889.459 383.25C877.747 383.25 867.452 383.523 866.582 383.857C863.907 384.883 864.681 388.146 867.75 388.782C874.598 390.201 879.442 392.843 881.426 396.24C883.251 399.365 883.518 402.186 884.169 425.226C885.28 464.562 885.548 483.255 885 483.199C884.725 483.172 865.386 460.671 842.024 433.199L799.549 383.25H780.743C764.949 383.25 761.845 383.49 761.362 384.75ZM225.759 395.241C237.793 400.84 246.998 412.168 252.174 427.75C254.253 434.007 254.5 436.607 254.5 452.25C254.5 465.947 254.112 471.163 252.716 476.25C247.337 495.851 237.69 506.491 221.465 510.717C205.952 514.758 192.008 510.604 181.131 498.703C170.431 486.995 165.545 471.785 165.565 450.25C165.585 429.438 170.047 415.714 180.444 404.483C192.237 391.746 210.32 388.058 225.759 395.241ZM695.645 394.39C715.93 401.98 728.129 426.496 726.675 456.75C725.138 488.715 712.908 507.174 690.5 511.35C667.006 515.729 646.962 500.954 639.49 473.75C636.943 464.476 636.386 443.428 638.417 433.169C644.734 401.257 669.374 384.561 695.645 394.39ZM533.5 394.737C546.632 398.127 558.587 406.571 564.472 416.613C575.687 435.749 574.946 469.633 562.903 488.401C559.06 494.39 551.102 501.658 545.002 504.749C535.81 509.407 529.392 510.676 514.827 510.714C499.548 510.754 497.568 510.051 493.5 503.145C491.572 499.872 491.5 497.952 491.5 449.523V399.296L494.039 396.757C495.436 395.359 498.583 393.793 501.039 393.273C507.122 391.985 526.164 392.843 533.5 394.737ZM11 574.249V580.25H452.874H894.747L894.624 574.5L894.5 568.75L452.75 568.499L11 568.248V574.249ZM11 621.751V633.252L452.75 633.001L894.5 632.75L894.783 621.5L895.066 610.25H453.033H11V621.751Z" fill="white"/>
</svg>
