<svg width="380" height="152" viewBox="0 0 380 152" fill="none" xmlns="http://www.w3.org/2000/svg">
<path fill-rule="evenodd" clip-rule="evenodd" d="M22.2468 39.5858V78.5759L11.8409 112.939C6.1178 131.839 1.27338 147.832 1.07575 148.479L0.716309 149.657L10.1509 149.618L19.5853 149.579L24.3071 133.944L29.0287 118.31L30.3813 118.267L31.7338 118.225L39.5888 133.94L47.444 149.655H58.8179H70.1917L69.4546 148.099C69.0493 147.243 65.6403 140.19 61.8789 132.426L55.0401 118.31L72.214 118.271C81.6595 118.25 89.4051 118.25 89.4265 118.271C89.4554 118.3 80.6353 147.398 80.0172 149.313L79.907 149.655H90.168H100.429L100.559 149.313C100.63 149.125 102.76 142.1 105.291 133.702L109.895 118.432L113.302 118.333C115.177 118.278 126.542 118.234 138.56 118.234C155.976 118.234 160.395 118.272 160.338 118.424C160.299 118.528 158.272 125.466 155.834 133.842C153.397 142.218 151.365 149.169 151.32 149.287C151.249 149.472 152.715 149.503 161.641 149.503C171.418 149.503 172.049 149.487 172.122 149.237C172.165 149.091 174.018 142.517 176.239 134.627C178.461 126.738 180.414 119.822 180.58 119.258L180.881 118.234H185.58H190.28L190.28 123.281C190.28 126.057 190.325 133.093 190.381 138.917L190.481 149.505L199.215 149.466L207.95 149.427L217.903 133.868L227.857 118.31L234.417 118.27C238.026 118.248 240.978 118.275 240.978 118.329C240.978 118.384 239.475 125.35 237.638 133.81C235.802 142.269 234.299 149.262 234.299 149.348C234.299 149.455 237.551 149.492 244.495 149.466L254.69 149.427L257.849 134.627C259.586 126.487 261.082 119.469 261.173 119.031L261.339 118.234H267.249H273.158V120.646C273.158 126.28 274.153 130.967 276.271 135.31C277.392 137.607 277.953 138.479 279.597 140.474C283.084 144.705 288.792 147.955 295.738 149.665C298.514 150.348 303.245 150.993 306.891 151.185C312.689 151.49 323.295 150.913 330.958 149.874C337.189 149.03 348.331 146.954 348.691 146.571C348.784 146.472 350.376 140.312 352.227 132.882C354.079 125.451 355.662 119.116 355.745 118.803L355.895 118.234H367.578H379.26V59.4147V0.595639H337.213H295.167V38.2113V75.827L293.476 77.2596C292.546 78.0475 290.975 79.5455 289.985 80.5884L288.185 82.4845V41.5401V0.595639H246.215H204.244V34.8245V69.0534H200.753H197.263L197.224 34.8625L197.186 0.671535L155.178 0.633284L113.17 0.595032V34.9001V69.2052H109.679H106.187V34.9004V0.595639H64.2171H22.2468V39.5858ZM103.151 38.4822V73.333L102.478 75.5572C99.3724 85.8227 90.7963 114.057 90.6107 114.629L90.3766 115.35H71.9768H53.577L52.1527 112.304L50.7285 109.259L56.1917 103.766C59.1966 100.745 66.838 93.0137 73.1729 86.5853C79.5076 80.157 85.9578 73.6167 87.5064 72.0513L90.3221 69.2052L77.5732 69.2175L64.8242 69.2297L57.2877 77.3004C43.8053 91.7382 35.2857 100.84 34.6006 101.537L33.9293 102.22L34.1573 101.461C34.2826 101.043 36.5305 93.6322 39.1526 84.9915L43.9197 69.2811L34.5254 69.242L25.1309 69.2029V36.4171V3.63146H64.1412H103.151V38.4822ZM194.226 36.3424V69.0534H184.436C179.051 69.0534 174.645 69.0839 174.645 69.1211C174.645 69.1583 171.64 79.543 167.966 92.1981C164.293 104.853 161.288 115.24 161.288 115.279C161.288 115.318 156.626 115.348 150.928 115.346L140.568 115.341L142.238 114.621C149.739 111.386 154.612 106.65 157.568 99.7219C159.109 96.1076 160.261 90.1131 160.255 85.7319C160.25 82.1125 159.82 80.0056 158.571 77.4778C156.334 72.9487 152.26 70.4977 145.349 69.5228C142.682 69.1463 139.301 69.0546 128.083 69.054L116.206 69.0534V36.3424V3.63146H155.216H194.226V36.3424ZM285.149 44.9719V86.3124L283.657 88.5739C279.167 95.3777 276.201 102.208 274.468 109.733C274.17 111.027 273.854 112.599 273.766 113.225C273.677 113.851 273.57 114.585 273.526 114.856L273.447 115.35H267.762C263.93 115.35 262.077 115.298 262.077 115.192C262.077 115.051 271.533 70.3825 271.74 69.5468L271.824 69.2052L255.301 69.2058L238.777 69.2063L224.049 92.2402L209.321 115.274L208.225 115.318L207.128 115.363V59.4973V3.63146H246.139H285.149V44.9719ZM376.224 59.4906V115.35H366.433C361.048 115.35 356.643 115.314 356.643 115.271C356.643 115.183 359.645 103.132 359.771 102.713C359.847 102.461 358.842 102.447 340.144 102.447H320.437L318.837 108.861L317.236 115.274L307.72 115.313L298.203 115.352V113.843C298.203 111.228 299.534 105.612 301.09 101.665C302.795 97.3379 305.667 92.4795 308.251 89.549C312.309 84.948 317.041 82.1131 322.626 80.939C324.29 80.5891 324.914 80.5354 327.423 80.5255C329.674 80.5167 330.59 80.5748 331.597 80.791C336.772 81.901 339.363 84.8704 339.402 89.7348L339.414 91.3663L351.124 91.3666C361.16 91.3667 362.846 91.3356 362.917 91.1488C362.963 91.0289 363.182 89.8538 363.403 88.5375C363.759 86.4194 363.798 85.8465 363.739 83.5566C363.684 81.4004 363.608 80.7256 363.283 79.509C361.533 72.9496 356.239 68.4693 347.62 66.253C343.789 65.2679 339.941 64.8168 334.329 64.6951C323.816 64.4668 313.96 66.1847 305.86 69.6573C303.867 70.5115 300.471 72.25 299.176 73.078C298.721 73.369 298.316 73.6072 298.276 73.6072C298.236 73.6072 298.203 57.8626 298.203 38.6193V3.63146H337.213H376.224V59.4906ZM134.904 82.1762C138.496 82.6573 140.095 83.567 140.735 85.4933C141.125 86.6668 140.954 88.8283 140.279 91.2556C138.233 98.6129 135.359 102.035 129.991 103.506C127.551 104.174 126.089 104.306 120.266 104.38C116.032 104.434 114.688 104.408 114.688 104.272C114.688 104.173 115.16 102.373 115.737 100.272C116.314 98.1709 117.105 95.2222 117.494 93.7195C117.884 92.2168 118.678 89.2113 119.26 87.0407C119.841 84.8701 120.384 82.8411 120.466 82.5317L120.616 81.9694L121.636 81.9044C123.811 81.7659 133.291 81.9602 134.904 82.1762ZM190.161 110.151L190.221 115.35H186C183.138 115.35 181.779 115.298 181.779 115.189C181.779 115.016 189.018 89.4024 189.563 87.6479L189.893 86.5853L189.997 95.7687C190.055 100.82 190.129 107.292 190.161 110.151ZM244.547 101.673C242.922 109.136 241.566 115.267 241.536 115.298C241.505 115.328 238.871 115.335 235.683 115.314L229.885 115.274L238.655 101.57C243.479 94.032 247.443 87.9186 247.464 87.9842C247.486 88.0496 246.173 94.2095 244.547 101.673ZM30.2917 115.198C30.2917 115.281 30.2234 115.35 30.14 115.35C30.0565 115.35 29.9882 115.281 29.9882 115.198C29.9882 115.114 30.0565 115.046 30.14 115.046C30.2234 115.046 30.2917 115.114 30.2917 115.198ZM334.078 118.651C334.02 118.881 333.114 122.484 332.064 126.658L330.155 134.248L328.03 134.574C323.405 135.285 321.322 135.458 317.405 135.458C314.104 135.459 313.379 135.415 311.835 135.119C309.409 134.655 307.804 134.129 306.082 133.234C302.148 131.189 299.639 128.028 298.514 123.698C298.152 122.302 297.749 119.528 297.748 118.424C297.748 118.273 301.492 118.234 315.966 118.234H334.183L334.078 118.651Z" fill="white"/>
</svg>
