<svg width="296" height="432" viewBox="0 0 296 432" fill="none" xmlns="http://www.w3.org/2000/svg">
<path fill-rule="evenodd" clip-rule="evenodd" d="M115.579 36.4375C67.271 50.3537 31.9286 94.8916 31.9286 147.675V398.634L51.2741 393.066L51.2794 393.065C80.3537 384.683 100.464 358.03 100.464 327.704V81.8713C100.464 65.2581 105.896 49.3667 115.579 36.4375ZM192.944 41.0611L192.936 41.0812C179.53 35.5834 164.041 37.2091 151.847 45.4402L151.819 45.4594L151.79 45.4786C139.68 53.577 132.393 67.2148 132.393 81.8713V262.297C137.415 262.965 142.514 263.318 147.675 263.318C211.594 263.318 263.421 211.49 263.421 147.571C263.421 105.133 240.537 67.9413 206.416 47.829C202.101 45.2958 197.603 43.0315 192.944 41.0611ZM132.393 294.447C137.405 294.97 142.503 295.246 147.675 295.246C229.228 295.246 295.35 229.124 295.35 147.571C295.35 93.3773 266.092 45.9373 222.619 20.317L222.598 20.3048C200.658 7.41969 175.011 0 147.675 0C66.1224 0 0 66.1224 0 147.675V400.543C0 410.265 4.6459 419.092 12.0072 424.771C19.7923 430.777 29.8338 432.443 38.8704 429.861L38.9 429.852L60.1156 423.746C102.843 411.433 132.393 372.284 132.393 327.704V294.447Z" fill="white"/>
</svg>
